<?xml version="1.0" standalone="no"?>
<!DOCTYPE svg PUBLIC "-//W3C//DTD SVG 20010904//EN"
 "http://www.w3.org/TR/2001/REC-SVG-20010904/DTD/svg10.dtd">
<svg version="1.0" xmlns="http://www.w3.org/2000/svg"
 width="180.000000pt" height="180.000000pt" viewBox="0 0 180.000000 180.000000"
 preserveAspectRatio="xMidYMid meet">

<g transform="translate(0.000000,180.000000) scale(0.100000,-0.100000)"
fill="#000000" stroke="none">
<path d="M105 1781 c-48 -22 -69 -44 -90 -94 -13 -32 -15 -134 -15 -789 0
-709 2 -755 19 -793 22 -48 44 -69 94 -90 32 -13 134 -15 789 -15 709 0 755 2
793 19 48 22 69 44 90 94 13 32 15 134 15 787 0 653 -2 755 -15 787 -21 50
-42 72 -90 94 -38 18 -84 19 -795 19 -711 0 -757 -1 -795 -19z m1171 -350
c194 -53 268 -169 198 -309 -42 -84 -163 -179 -284 -221 l-54 -19 39 -7 c186
-31 261 -81 285 -188 41 -186 -154 -358 -393 -345 -63 3 -80 7 -101 27 -22 21
-29 23 -51 13 -54 -25 -98 -9 -129 46 -16 27 -36 191 -36 287 0 159 31 399 72
560 l13 50 51 3 c72 4 79 -7 54 -94 -34 -115 -79 -363 -88 -474 -9 -116 1
-288 19 -323 25 -46 69 -52 69 -9 0 56 84 150 180 201 65 35 161 64 192 59 17
-3 12 -7 -22 -16 -129 -34 -296 -159 -288 -214 10 -71 212 -28 317 68 55 49
71 82 71 145 0 68 -25 108 -92 144 -44 24 -66 29 -151 33 -64 3 -118 0 -154
-9 -53 -12 -56 -12 -73 9 -10 12 -16 31 -13 42 6 22 17 26 108 35 140 15 320
119 386 224 23 35 29 57 29 99 0 47 -4 58 -30 82 -53 49 -124 64 -305 63 -132
-1 -182 -5 -289 -27 -212 -44 -365 -111 -406 -179 -28 -44 -25 -74 9 -108 26
-25 37 -29 85 -29 65 0 140 26 193 67 56 44 62 46 56 23 -7 -28 -74 -79 -134
-101 -155 -59 -287 -18 -306 95 -18 115 113 224 340 281 152 38 208 44 387 41
132 -3 181 -8 246 -25z"/>
</g>
</svg>
